HIERARCHY
ROOT Hips
{
	OFFSET 0.00000 0.00000 0.00000
	CHANNELS 6 Xposition Yposition Zposition Zrotation Yrotation Xrotation 
	JOINT LHipJoint
	{
		OFFSET 0 0 0
		CHANNELS 3 Zrotation Yrotation Xrotation
		JOINT LeftHip
		{
			OFFSET 1.64549 -1.70879 0.84566
			CHANNELS 3 Zrotation Yrotation Xrotation
			JOINT LeftKnee
			{
				OFFSET 2.24963 -6.18082 0.00000
				CHANNELS 3 Zrotation Yrotation Xrotation
				JOINT LeftAnkle
				{
					OFFSET 2.71775 -7.46697 0.00000
					CHANNELS 3 Zrotation Yrotation Xrotation
					JOINT LeftToe
					{
						OFFSET 0.18768 -0.51564 2.24737
						CHANNELS 3 Zrotation Yrotation Xrotation
						End Site
						{
							OFFSET 0.00000 -0.00000 1.15935
						}
					}
				}
			}
		}
	}
	JOINT RHipJoint
	{
		OFFSET 0 0 0
		CHANNELS 3 Zrotation Yrotation Xrotation
		JOINT RightHip
		{
			OFFSET -1.58830 -1.70879 0.84566
			CHANNELS 3 Zrotation Yrotation Xrotation
			JOINT RightKnee
			{
				OFFSET -2.25006 -6.18201 0.00000
				CHANNELS 3 Zrotation Yrotation Xrotation
				JOINT RightAnkle
				{
					OFFSET -2.72829 -7.49593 0.00000
					CHANNELS 3 Zrotation Yrotation Xrotation
					JOINT RightToe
					{
						OFFSET -0.21541 -0.59185 2.10643
						CHANNELS 3 Zrotation Yrotation Xrotation
						End Site
						{
							OFFSET -0.00000 -0.00000 1.09838
						}
					}
				}
			}
		}
	}
	JOINT lowerback
	{
		OFFSET 0 0 0
		CHANNELS 3 Zrotation Yrotation Xrotation
		JOINT Chest
		{
			OFFSET 0.03142 2.10496 -0.11038
			CHANNELS 3 Zrotation Yrotation Xrotation
			JOINT Chest2
			{
				OFFSET -0.01863 2.10897 -0.06956
				CHANNELS 3 Zrotation Yrotation Xrotation
				JOINT lowerneck
				{
					OFFSET 0 0 0
					CHANNELS 3 Zrotation Yrotation Xrotation
					JOINT Neck
					{
						OFFSET -0.02267 1.73238 0.00451
						CHANNELS 3 Zrotation Yrotation Xrotation
						JOINT Head
						{
							OFFSET -0.05808 1.54724 -0.61749
							CHANNELS 3 Zrotation Yrotation Xrotation
							End Site
							{
								OFFSET -0.01396 1.71468 -0.21082
							}
						}
					}
				}
				JOINT LeftCollar
				{
					OFFSET 0 0 0
					CHANNELS 3 Zrotation Yrotation Xrotation
					JOINT LeftShoulder
					{
						OFFSET 3.44898 0.50298 0.21920
CHANNELS 3 Zrotation Xrotation Yrotation
						JOINT LeftElbow
						{
OFFSET 0 -5.419170 -0.000000
CHANNELS 3 Zrotation Xrotation Yrotation
							JOINT LeftWrist
							{
OFFSET 0 -2.443730 0.000000
CHANNELS 3 Zrotation Xrotation Yrotation
								JOINT lhand
								{
									OFFSET 0 0 0
CHANNELS 3 Zrotation Xrotation Yrotation
									JOINT LFingers
									{
OFFSET 0 -0.727500 0.000000
CHANNELS 3 Zrotation Xrotation Yrotation
										End Site
										{
OFFSET 0 -0.586530 0.000000
										}
									}
								}
								JOINT LThumb
								{
OFFSET 0 0.000000 0.000000
CHANNELS 3 Zrotation Xrotation Yrotation
									End Site
									{
OFFSET 0 -0.595490 0.595490
									}
								}
							}
						}
					}
				}
				JOINT RightCollar
				{
					OFFSET 0 0 0
					CHANNELS 3 Zrotation Yrotation Xrotation
					JOINT RightShoulder
					{
						OFFSET -3.23015 0.55830 0.31051
CHANNELS 3 Zrotation Xrotation Yrotation
						JOINT RightElbow
						{
OFFSET 0 -5.589760 0.000140
CHANNELS 3 Zrotation Xrotation Yrotation
							JOINT RightWrist
							{
OFFSET 0 -2.480600 0.000000
CHANNELS 3 Zrotation Xrotation Yrotation
								JOINT rhand
								{
									OFFSET 0 0 0
CHANNELS 3 Zrotation Xrotation Yrotation
									JOINT RFingers
									{
OFFSET 0 -0.816010 0.000000
CHANNELS 3 Zrotation Xrotation Yrotation
										End Site
										{
OFFSET 0 -0.657890 0.000000
										}
									}
								}
								JOINT RThumb
								{
OFFSET 0 0.000000 0.000000
CHANNELS 3 Zrotation Xrotation Yrotation
									End Site
									{
OFFSET 0 -0.667930 0.667930
									}
								}
							}
						}
					}
				}
			}
		}
	}
}
MOTION
Frames: 5
Frame Time: 0.008333333333333333
-1.447000 16.347300 28.721200 -177.659000 5.673200 -153.484000 0.000000 0.000000 0.000000 -20.012900 -15.509300 -29.190900 4.782500 13.134600 39.874300 4.981100 5.388200 -44.248600 0.921800 -6.117000 -17.124200 0.000000 0.000000 0.000000 14.139100 21.335900 -64.095600 -7.522100 -15.756200 50.822300 -0.431300 -7.694100 -17.540600 -0.006600 0.524500 -1.441200 0.279300 -0.876600 1.455100 0.223800 -0.898000 -5.644300 0.128900 -0.342900 -6.680700 0.716700 1.839200 -22.137100 -0.742300 2.595200 19.131000 0.008800 1.207700 9.733000 0.000000 -0.000000 0.000000 17.836600 4.956100 -81.001500 53.417200 -54.284100 28.926500 20.604700 24.505000 -2.698200 0.000000 0.000000 0.000000 -7.125000 0.000000 0.000000 -4.861000 32.835300 -1.453100 0.000000 -0.000000 0.000000 -9.113700 12.764800 60.753300 -70.624500 -58.532900 -43.303000 -5.015000 -9.294700 -18.560100 0.000000 0.000000 0.000000 7.125000 0.000000 -0.000000 15.025500 11.820300 12.061600
-1.438362 16.356478 28.588025 -177.774179 5.764263 -153.378720 0.000000 0.000000 0.000000 -20.379042 -15.274174 -28.255614 4.555922 12.865010 38.866037 4.952665 5.758121 -44.269656 0.934578 -6.157942 -17.243338 0.000000 0.000000 0.000000 13.112570 22.132702 -64.697588 -7.007755 -15.336698 48.900617 -0.289756 -8.091106 -16.157737 -0.013799 0.754767 -2.074413 -0.024664 -1.046488 1.455820 0.325391 -1.104782 -5.965090 0.421346 -0.410927 -7.015708 0.697983 1.994421 -22.180472 -0.832373 2.854802 19.415977 0.021398 1.318199 9.845209 0.000000 0.000000 0.000000 17.106565 3.946937 -81.383659 49.278058 -52.685187 25.602697 20.064800 25.388546 -3.459549 0.000000 0.000000 0.000000 -7.125000 0.000000 0.000000 -5.359597 33.626433 -1.499261 0.000000 0.000000 0.000000 -8.779952 12.444010 59.914566 -66.209829 -57.738977 -39.554655 -5.927341 -9.233151 -18.830320 0.000000 0.000000 0.000000 7.125000 0.000000 0.000000 14.433770 11.498700 11.651816
-1.434361 16.361178 28.455729 -177.899753 5.685557 -153.348608 0.000000 0.000000 0.000000 -20.717436 -15.147002 -27.220769 4.342698 12.601977 37.897837 4.957257 5.841442 -44.320860 0.889379 -6.010563 -16.815344 0.000000 0.000000 0.000000 12.090679 22.737505 -65.334442 -6.561942 -14.949262 47.193164 -0.137017 -8.695306 -14.670677 -0.014920 0.789596 -2.170010 -0.090407 -1.208300 1.125478 0.309591 -1.322039 -5.942904 0.450701 -0.514300 -6.797827 0.743720 2.131010 -22.579615 -0.829765 3.024281 19.577966 0.045111 1.395353 9.976530 0.000000 0.000000 0.000000 16.580366 2.204241 -81.805322 45.045915 -50.758490 22.283531 19.294357 25.985492 -3.791397 0.000000 0.000000 0.000000 -7.125000 0.000000 0.000000 -6.017169 33.949602 -1.637864 0.000000 0.000000 0.000000 -8.308661 11.705873 58.771478 -62.173960 -56.844856 -36.159283 -6.011707 -8.629749 -18.548530 0.000000 0.000000 0.000000 7.125000 0.000000 0.000000 14.387892 11.767173 11.529912
-1.431781 16.364968 28.328300 -178.000048 5.340831 -153.383871 0.000000 0.000000 0.000000 -20.924625 -15.168706 -26.083567 4.126321 12.325216 36.894505 4.957311 5.774565 -44.295397 0.828315 -5.805320 -16.220956 0.000000 0.000000 0.000000 11.108680 23.191228 -65.934113 -6.152763 -14.571929 45.586482 0.029505 -9.613723 -13.150979 -0.004857 0.342961 -0.942383 -0.001589 -1.406314 1.060747 0.294056 -1.578591 -5.988277 0.401914 -0.643715 -6.810285 0.879092 2.220777 -23.025002 -0.834225 3.106017 19.874451 0.040697 1.438601 10.166206 0.000000 0.000000 0.000000 16.052558 0.492283 -82.454653 41.030788 -48.626073 19.222643 18.208450 26.709031 -4.099664 0.000000 0.000000 0.000000 -7.125000 0.000000 0.000000 -6.935490 34.230801 -1.842397 0.000000 0.000000 0.000000 -7.869107 11.057388 57.515981 -58.391403 -55.844032 -33.010980 -5.971656 -8.121527 -17.916047 0.000000 0.000000 0.000000 7.125000 0.000000 0.000000 14.433891 12.384253 11.377615
-1.423029 16.362604 28.212902 -178.277925 5.071466 -153.188836 0.000000 0.000000 0.000000 -21.220554 -15.265794 -25.312047 3.916353 12.046686 35.899511 4.901961 5.842827 -44.088433 0.815491 -5.762448 -16.096767 0.000000 0.000000 0.000000 9.556408 23.881386 -66.979234 -5.792672 -14.221870 44.139183 0.223367 -11.052449 -11.769152 -0.003856 -0.243122 0.668056 -0.233236 -1.616424 1.050340 0.278853 -1.841946 -6.282501 0.536467 -0.745038 -7.110462 1.021820 2.302657 -23.287713 -0.842954 3.187491 20.261815 0.033164 1.485920 10.357104 0.000000 0.000000 0.000000 15.388121 -0.991211 -82.932173 37.314112 -46.349046 16.482062 16.775622 27.414381 -4.222042 0.000000 0.000000 0.000000 -7.125000 0.000000 0.000000 -8.118649 34.300948 -2.150419 0.000000 0.000000 0.000000 -7.557749 10.497857 56.324253 -54.401940 -54.589036 -29.736179 -6.408256 -8.000004 -17.538855 0.000000 0.000000 0.000000 7.125000 0.000000 0.000000 14.163161 12.722922 11.047584
